<?xml version="1.0" encoding="utf-8"?>
<!-- Generator: Adobe Illustrator 24.1.2, SVG Export Plug-In . SVG Version: 6.00 Build 0)  -->
<svg version="1.1" id="Layer_1" xmlns="http://www.w3.org/2000/svg" xmlns:xlink="http://www.w3.org/1999/xlink" x="0px" y="0px"
	 viewBox="0 0 387.9 143.8" style="enable-background:new 0 0 387.9 143.8;" xml:space="preserve">
<g>
	<path style="fill:#FFFFFF;stroke:#FFFFFF;" d="M50.5,142.7c-1.5,0-2.6-0.4-3.5-1.3c-0.9-0.9-1.3-2-1.3-3.5V80.2
		c0-1.5,0.4-2.6,1.3-3.5c0.9-0.9,2-1.3,3.5-1.3c1.4,0,2.5,0.4,3.4,1.3c0.9,0.9,1.3,2,1.3,3.5v57.7c0,1.5-0.4,2.6-1.3,3.5
		C53,142.3,51.9,142.7,50.5,142.7z"/>
	<path style="fill:#FFFFFF;stroke:#FFFFFF;" d="M84.1,142.7c-1.5,0-2.6-0.4-3.5-1.3c-0.9-0.9-1.3-2-1.3-3.5V80.2
		c0-1.5,0.4-2.6,1.3-3.5c0.9-0.9,2-1.3,3.5-1.3c2.1,0,3.9,1,5.2,3l27.2,39.4l27.2-39.4c1.3-2,3-3,5.2-3c1.5,0,2.6,0.4,3.5,1.3
		c0.9,0.9,1.3,2,1.3,3.5v57.7c0,1.5-0.4,2.6-1.3,3.5c-0.9,0.9-2,1.3-3.5,1.3c-1.5,0-2.6-0.4-3.4-1.3c-0.8-0.9-1.2-2-1.2-3.5V86.4
		l3.1,1l-26.3,38c-1.3,1.9-2.8,2.8-4.6,2.8c-1.7,0-3.2-0.9-4.4-2.8L85.5,87.7l3.2-1v51.2c0,1.5-0.4,2.6-1.2,3.5
		C86.7,142.3,85.5,142.7,84.1,142.7z"/>
	<path style="fill:#FFFFFF;stroke:#FFFFFF;" d="M205.3,143.3c-6.3,0-12-1.5-17-4.5c-5-3-9-7.1-11.9-12.2c-2.9-5.2-4.4-11-4.4-17.5
		c0-6.6,1.5-12.4,4.5-17.6c3-5.2,7.1-9.2,12.2-12.2c5.2-3,11-4.5,17.5-4.5c6.5,0,12.3,1.5,17.4,4.5c5.1,3,9.2,7.1,12.2,12.2
		c3,5.2,4.5,11,4.6,17.6l-3.8,3c0,5.9-1.4,11.2-4.1,15.9c-2.7,4.7-6.5,8.4-11.2,11.2C216.7,142,211.3,143.3,205.3,143.3z
		 M206.3,134.7c4.8,0,9-1.1,12.7-3.3c3.7-2.2,6.7-5.3,8.9-9.2c2.2-3.9,3.3-8.3,3.3-13.1c0-4.9-1.1-9.3-3.3-13.2
		c-2.2-3.9-5.1-6.9-8.9-9.2c-3.7-2.3-8-3.4-12.7-3.4c-4.7,0-8.9,1.1-12.7,3.4c-3.8,2.3-6.8,5.3-9,9.2c-2.2,3.9-3.3,8.2-3.3,13.2
		c0,4.8,1.1,9.2,3.3,13.1c2.2,3.9,5.2,6.9,9,9.2C197.4,133.6,201.7,134.7,206.3,134.7z M235.7,142.7c-1.4,0-2.5-0.4-3.4-1.3
		c-0.9-0.9-1.4-2-1.4-3.4v-21l2.3-9.7l7.3,1.8V138c0,1.4-0.5,2.5-1.4,3.4C238.3,142.3,237.1,142.7,235.7,142.7z"/>
	<path style="fill:#FFFFFF;stroke:#FFFFFF;" d="M279.5,143.3c-4.8,0-9.2-0.7-13-2.2c-3.9-1.5-6.9-3.6-9.2-6.3
		c-2.3-2.7-3.4-5.9-3.4-9.6c0-3.1,0.8-5.9,2.5-8.5c1.7-2.5,4.4-4.8,8.1-6.7c3.7-1.9,8.6-3.5,14.7-4.9c5.5-1.2,9.3-2.8,11.4-4.7
		c2.1-1.9,3.1-4.4,3.1-7.3c0-2.9-1.2-5.2-3.7-7.1c-2.5-1.8-5.9-2.8-10.2-2.8c-3.4,0-6.6,0.6-9.5,1.8c-2.9,1.2-5.3,2.9-7.2,5.1
		c-0.9,1-1.9,1.6-3.1,1.8c-1.1,0.2-2.1,0.1-3-0.4c-1.3-0.7-2.1-1.7-2.3-2.9c-0.2-1.2,0-2.3,0.9-3.3c2.4-3.2,5.6-5.8,9.7-7.7
		c4.1-2,8.9-3,14.4-3c4.5,0,8.5,0.7,12.1,2.2c3.5,1.4,6.3,3.5,8.2,6.3c2,2.8,3,6.2,3,10.2c0,4.3-1.6,8.1-4.9,11.4
		c-3.3,3.3-8.7,5.8-16.4,7.6c-7,1.6-11.8,3.3-14.4,5.3c-2.6,2-3.9,4.4-3.9,7.4c0,3.2,1.3,5.6,3.9,7.2s6.6,2.4,12,2.4
		c4.1,0,7.8-0.5,11-1.5c3.2-1,5.9-2.7,8.1-5.2c0.8-0.9,1.8-1.5,3-1.8c1.1-0.3,2.3,0,3.4,0.9c1.1,0.9,1.6,1.9,1.7,3.1
		c0.1,1.1-0.3,2.2-1.2,3.2c-2.8,3-6.6,5.4-11.3,7.2C289.1,142.5,284.3,143.3,279.5,143.3z"/>
	<path style="fill:#FFFFFF;stroke:#FFFFFF;" d="M353.2,143.3c-6.6,0-12.4-1.5-17.6-4.4s-9.2-7-12.2-12.2c-3-5.2-4.4-11-4.4-17.6
		c0-6.6,1.5-12.5,4.4-17.7s7-9.2,12.2-12.2c5.2-3,11-4.4,17.6-4.4c6.6,0,12.4,1.5,17.5,4.4c5.1,3,9.2,7,12.1,12.2s4.5,11.1,4.6,17.7
		c0,6.6-1.5,12.4-4.5,17.6c-3,5.2-7.1,9.2-12.2,12.2C365.6,141.9,359.7,143.3,353.2,143.3z M353.2,134.7c4.8,0,9-1.1,12.8-3.3
		c3.8-2.2,6.7-5.2,8.9-9.1c2.1-3.9,3.2-8.2,3.2-13.2s-1.1-9.3-3.2-13.2c-2.1-3.9-5.1-6.9-8.9-9.2c-3.8-2.2-8-3.3-12.8-3.3
		c-4.8,0-9,1.1-12.8,3.3c-3.8,2.2-6.7,5.3-8.9,9.2c-2.2,3.9-3.3,8.3-3.3,13.2s1.1,9.3,3.3,13.2c2.2,3.9,5.1,6.9,8.9,9.1
		C344.2,133.6,348.4,134.7,353.2,134.7z"/>
	<g>
		<path style="fill:#FED700;stroke:#FED700;stroke-width:5;stroke-miterlimit:10;" d="M93.1,35.8L76.7,61.2
			c-3.3,5.1-10,6.5-15.1,3.3l-12.4-8c3.3-4.4,5.3-9.8,5.3-15.7c0-9.4-5-17.6-12.4-22.2l7.2-11.2c3.3-5.1,10-6.5,15.1-3.3l25.5,16.4
			C94.9,23.9,96.4,30.7,93.1,35.8z"/>
		<path style="fill:#205AA9;stroke:#205AA9;stroke-width:5;stroke-miterlimit:10;" d="M49.3,56.5C44.5,62.8,37,66.9,28.5,66.9
			c-14.4,0-26-11.6-26-26s11.6-26,26-26c5,0,9.6,1.4,13.6,3.8L32.9,33c-3.3,5.1-1.8,11.8,3.3,15.1L49.3,56.5z"/>
		<path style="stroke:#000000;stroke-width:5;stroke-miterlimit:10;" d="M54.5,40.9c0,5.9-2,11.3-5.3,15.7l-13.1-8.5
			c-5.1-3.3-6.5-10-3.3-15.1l9.2-14.3C49.5,23.3,54.5,31.5,54.5,40.9z"/>
	</g>
</g>
</svg>
